<?xml version="1.0" encoding="utf-8"?>
<!-- Generator: Adobe Illustrator 20.0.0, SVG Export Plug-In . SVG Version: 6.00 Build 0)  -->
<svg version="1.1" id="Layer_1" xmlns="http://www.w3.org/2000/svg" xmlns:xlink="http://www.w3.org/1999/xlink" x="0px" y="0px"
	 viewBox="0 0 64 64" style="enable-background:new 0 0 64 64;" xml:space="preserve">
<style type="text/css">
	.st0{fill:#6E1010;}
</style>
<path class="st0" d="M48.5,23.9c-0.3-0.6-0.9-0.9-1.6-0.9H34.7V6.6c0-1-0.8-1.8-1.8-1.8c-1,0-1.8,0.8-1.8,1.8v16.4H19
	c-0.7,0-1.3,0.4-1.6,0.9c-0.3,0.6-0.3,1.3,0,1.9l13.9,22.4c0.3,0.5,0.9,0.9,1.6,0.9c0.6,0,1.2-0.3,1.6-0.9l13.9-22.4
	C48.8,25.2,48.8,24.5,48.5,23.9z M33,43.7L22.3,26.6h21.2L33,43.7z"/>
<path class="st0" d="M56.9,58.5H9c-0.9,0-1.6-0.7-1.6-1.7V45.5c0-0.9,0.7-1.6,1.6-1.6s1.6,0.7,1.6,1.6v9.7h44.7v-9.7
	c0-0.9,0.7-1.6,1.6-1.6c0.9,0,1.6,0.7,1.6,1.6v11.4C58.5,57.8,57.8,58.5,56.9,58.5z"/>
</svg>
