<?xml version="1.0" encoding="utf-8"?>
<!-- Generator: Adobe Illustrator 20.0.0, SVG Export Plug-In . SVG Version: 6.00 Build 0)  -->
<svg version="1.1" id="Layer_1" xmlns="http://www.w3.org/2000/svg" xmlns:xlink="http://www.w3.org/1999/xlink" x="0px" y="0px"
	 viewBox="0 0 64 64" style="enable-background:new 0 0 64 64;" xml:space="preserve">
<style type="text/css">
	.st0{fill:#6E1010;}
</style>
<path class="st0" d="M49.1,23.5L49.1,23.5c-0.5-0.8-1.3-1.3-2.3-1.3H35.5V6.6c0-1.4-1.2-2.6-2.6-2.6s-2.6,1.2-2.6,2.6v15.6H19
	c-0.9,0-1.8,0.5-2.3,1.3c-0.5,0.8-0.4,1.8,0.1,2.6l13.9,22.4c0.5,0.8,1.3,1.2,2.2,1.2c0.9,0,1.7-0.5,2.2-1.2L49,26.1
	C49.5,25.3,49.6,24.3,49.1,23.5z M42.2,27.4L33,42.3l-9.3-14.9H42.2z"/>
<path class="st0" d="M56.9,43.2c-1.3,0-2.4,1.1-2.4,2.3v9H11.4v-9c0-1.3-1.1-2.3-2.4-2.3s-2.4,1.1-2.4,2.3v11.3c0,1.4,1,2.5,2.4,2.5
	h47.9c1.3,0,2.3-1.1,2.3-2.3V45.5C59.2,44.2,58.2,43.2,56.9,43.2z"/>
</svg>
