<?xml version="1.0" encoding="UTF-8"?>
<svg width="47px" height="47px" viewBox="0 0 47 47" version="1.1" xmlns="http://www.w3.org/2000/svg" xmlns:xlink="http://www.w3.org/1999/xlink">
    <!-- Generator: Sketch 43.2 (39069) - http://www.bohemiancoding.com/sketch -->
    <title>Page 1</title>
    <desc>Created with Sketch.</desc>
    <defs></defs>
    <g id="Welcome" stroke="none" stroke-width="1" fill="none" fill-rule="evenodd">
        <g id="Desktop-HD-Copy-2" transform="translate(-458.000000, -573.000000)" fill="#6E1010">
            <g id="Page-1" transform="translate(458.000000, 573.000000)">
                <path d="M39.4425403,25.8951403 L29.1123612,36.1116745 C28.565197,36.6522872 27.6728985,36.6494969 27.1278388,36.106094 L10.2667642,19.2459526 C9.72240597,18.701852 9.72451045,17.8145496 10.2716746,17.2732393 L20.6018537,7.05670511 C21.1490179,6.51609238 22.0420179,6.51818507 22.5863761,7.06228562 L39.4481522,23.9217295 C39.991809,24.46583 39.9897045,25.35383 39.4425403,25.8951403" id="Fill-1"></path>
                <g id="Group-5" transform="translate(0.000000, 25.964408)">
                    <path d="M13.4798104,0.477064572 C13.1213478,0.477064572 12.7628851,0.610997015 12.490706,0.880954595 L1.46534776,11.7845901 C-0.480592537,13.7091714 -0.48971194,16.8377496 1.44570597,18.7727943 C2.41657164,19.743107 3.69258657,20.2293097 4.96930299,20.2293097 C6.23619851,20.2293097 7.50309403,19.7507802 8.47255672,18.7916286 L19.4986164,7.88799309 C20.0450791,7.34738036 20.0478851,6.4586828 19.5035269,5.91527981 L14.4745269,0.886535114 C14.2016463,0.613089709 13.8403776,0.477064572 13.4798104,0.477064572 M13.4741985,3.84351233 L16.5249896,6.89326567 L6.49434776,16.8133348 C6.0860791,17.2165273 5.54452687,17.4390504 4.96930299,17.4390504 C4.38916866,17.4390504 3.84410896,17.213737 3.43513881,16.804964 C3.02827313,16.3975862 2.80449701,15.8569734 2.8059,15.2828776 C2.80800448,14.7073866 3.03388507,14.168169 3.44355672,13.7635815 L13.4741985,3.84351233 M14.4689149,2.85924839 L14.4731239,2.85924839 L14.4689149,2.85924839" id="Fill-3"></path>
                </g>
                <path d="M36.2687075,6.97564808e-05 C33.6268866,6.97564808e-05 30.9864687,0.998284996 28.9654687,2.9961106 C27.9483045,4.00269662 26.6631701,5.48432427 26.9122,6.41069034 C27.6193045,9.03562671 37.7165881,19.2151899 40.1577821,19.6365191 C40.2188119,19.6476801 40.2826478,19.6525631 40.3464836,19.6525631 C41.3040209,19.6525631 42.6193194,18.543435 43.5712448,17.6003274 C47.6265731,13.5900273 47.6455134,7.06919152 43.6119313,3.03656936 C41.5881254,1.01293386 38.9280657,6.97564808e-05 36.2687075,6.97564808e-05 M36.2687075,2.79032899 C38.2932149,2.79032899 40.1949612,3.57648452 41.6224985,5.00370212 C44.5575433,7.93905483 44.5449164,12.7027249 41.5930358,15.6227312 C41.0325433,16.1765976 40.6270806,16.5002677 40.3640209,16.6851224 C37.9010806,15.163036 31.475409,8.70009804 29.8879313,6.15747431 C30.0815433,5.89588751 30.4077373,5.50594878 30.9443791,4.97510196 C32.368409,3.56602105 34.2596328,2.79032899 36.2687075,2.79032899" id="Fill-6"></path>
            </g>
        </g>
    </g>
</svg>