<?xml version="1.0" encoding="utf-8"?>
<!-- Generator: Adobe Illustrator 20.0.0, SVG Export Plug-In . SVG Version: 6.00 Build 0)  -->
<svg version="1.1" id="Layer_1" xmlns="http://www.w3.org/2000/svg" xmlns:xlink="http://www.w3.org/1999/xlink" x="0px" y="0px"
	 viewBox="0 0 64 64" style="enable-background:new 0 0 64 64;" xml:space="preserve">
<style type="text/css">
	.st0{fill:#6E1010;}
</style>
<g>
	<path class="st0" d="M32,2.8C15.9,2.8,2.8,15.9,2.8,32S15.9,61.2,32,61.2S61.2,48.1,61.2,32S48.1,2.8,32,2.8z M32,56.2
		C18.7,56.2,7.8,45.3,7.8,32S18.7,7.8,32,7.8S56.2,18.7,56.2,32S45.3,56.2,32,56.2z"/>
</g>
<g>
	<path class="st0" d="M25.3,16.9h-3.3c-1.5,0-2.8,1.3-2.8,2.8v25.7c0,1.5,1.3,2.8,2.8,2.8h3.3c1.5,0,2.8-1.3,2.8-2.8V19.7
		C28.1,18.2,26.8,16.9,25.3,16.9z"/>
</g>
<path class="st0" d="M43.3,16.9H40c-1.5,0-2.8,1.3-2.8,2.8v25.7c0,1.5,1.3,2.8,2.8,2.8h3.3c1.5,0,2.8-1.3,2.8-2.8V19.7
	C46.1,18.2,44.8,16.9,43.3,16.9z"/>
</svg>
