<?xml version="1.0" encoding="utf-8"?>
<!-- Generator: Adobe Illustrator 20.0.0, SVG Export Plug-In . SVG Version: 6.00 Build 0)  -->
<svg version="1.1" id="Layer_1" xmlns="http://www.w3.org/2000/svg" xmlns:xlink="http://www.w3.org/1999/xlink" x="0px" y="0px"
	 viewBox="0 0 64 64" style="enable-background:new 0 0 64 64;" xml:space="preserve">
<style type="text/css">
	.st0{fill:#6E1010;}
</style>
<g>
	<path class="st0" d="M25,6h-8.1c-2.5,0-4.6,2.1-4.6,4.6v41.9c0,2.5,2.1,4.6,4.6,4.6H25c2.5,0,4.6-2.1,4.6-4.6V10.6
		C29.6,8.1,27.5,6,25,6z M24.4,11.2V52h-6.9V11.2L24.4,11.2z"/>
	<path class="st0" d="M48.1,6H40c-2.5,0-4.6,2.1-4.6,4.6v41.9c0,2.5,2.1,4.6,4.6,4.6h8.1c2.5,0,4.6-2.1,4.6-4.6V10.6
		C52.7,8.1,50.6,6,48.1,6z M47.4,11.2V52h-6.9V11.2L47.4,11.2z"/>
</g>
</svg>
