<?xml version="1.0" encoding="utf-8"?>
<!-- Generator: Adobe Illustrator 20.0.0, SVG Export Plug-In . SVG Version: 6.00 Build 0)  -->
<svg version="1.1" id="Layer_1" xmlns="http://www.w3.org/2000/svg" xmlns:xlink="http://www.w3.org/1999/xlink" x="0px" y="0px"
	 viewBox="0 0 64 64" style="enable-background:new 0 0 64 64;" xml:space="preserve">
<style type="text/css">
	.st0{fill:#6E1010;}
</style>
<g>
	<path class="st0" d="M26,56.1h-8.1c-2,0-3.6-1.6-3.6-3.6V10.6c0-2,1.6-3.6,3.6-3.6H26c2,0,3.6,1.6,3.6,3.6v41.9
		C29.6,54.5,28,56.1,26,56.1z M17.9,10.3c-0.2,0-0.4,0.2-0.4,0.4v41.9c0,0.2,0.2,0.4,0.4,0.4H26c0.2,0,0.4-0.2,0.4-0.4V10.6
		c0-0.2-0.2-0.4-0.4-0.4H17.9z"/>
</g>
<g>
	<path class="st0" d="M47.1,56.1h-8.1c-2,0-3.6-1.6-3.6-3.6V10.6c0-2,1.6-3.6,3.6-3.6h8.1c2,0,3.6,1.6,3.6,3.6v41.9
		C50.7,54.5,49.1,56.1,47.1,56.1z M38.9,10.3c-0.2,0-0.4,0.2-0.4,0.4v41.9c0,0.2,0.2,0.4,0.4,0.4h8.1c0.2,0,0.4-0.2,0.4-0.4V10.6
		c0-0.2-0.2-0.4-0.4-0.4H38.9z"/>
</g>
</svg>
