<?xml version="1.0" encoding="utf-8"?>
<!-- Generator: Adobe Illustrator 20.0.0, SVG Export Plug-In . SVG Version: 6.00 Build 0)  -->
<svg version="1.1" id="Layer_1" xmlns="http://www.w3.org/2000/svg" xmlns:xlink="http://www.w3.org/1999/xlink" x="0px" y="0px"
	 viewBox="0 0 64 64" style="enable-background:new 0 0 64 64;" xml:space="preserve">
<style type="text/css">
	.st0{fill:#6E1010;}
</style>
<g>
	<path class="st0" d="M32,2.8C15.9,2.8,2.8,15.9,2.8,32c0,16.1,13.1,29.2,29.2,29.2c16.1,0,29.2-13.1,29.2-29.2
		C61.2,15.9,48.1,2.8,32,2.8z M32,56.2C18.7,56.2,7.8,45.3,7.8,32C7.8,18.7,18.7,7.8,32,7.8c13.3,0,24.2,10.9,24.2,24.2
		C56.2,45.3,45.3,56.2,32,56.2z"/>
	<path class="st0" d="M46.2,28.4L27.4,15.6c-0.8-0.5-1.7-0.8-2.5-0.8c-2.5,0-4.5,2-4.5,4.5v25.6c0,2.5,2,4.5,4.5,4.5
		c0.9,0,1.7-0.2,2.5-0.7l18.8-12.8c1.2-0.8,2-2.2,2-3.6C48.2,30.6,47.5,29.2,46.2,28.4z M42.5,32.2L25.5,43.6v-23L42.5,32.2z"/>
</g>
</svg>
