<?xml version="1.0" encoding="utf-8"?>
<!-- Generator: Adobe Illustrator 20.0.0, SVG Export Plug-In . SVG Version: 6.00 Build 0)  -->
<svg version="1.1" id="Layer_1" xmlns="http://www.w3.org/2000/svg" xmlns:xlink="http://www.w3.org/1999/xlink" x="0px" y="0px"
	 viewBox="0 0 64 64" style="enable-background:new 0 0 64 64;" xml:space="preserve">
<style type="text/css">
	.st0{fill:#6E1010;}
</style>
<g>
	<path class="st0" d="M32,2.8C15.9,2.8,2.8,15.9,2.8,32S15.9,61.2,32,61.2S61.2,48.1,61.2,32S48.1,2.8,32,2.8z M32,56.2
		C18.7,56.2,7.8,45.3,7.8,32S18.7,7.8,32,7.8S56.2,18.7,56.2,32S45.3,56.2,32,56.2z"/>
	<path class="st0" d="M44.1,29.1L28.6,18.5c-0.7-0.4-1.4-0.7-2.1-0.7c-2.1,0-3.7,1.6-3.7,3.7v21c0,2.1,1.6,3.7,3.7,3.7
		c0.7,0,1.4-0.2,2.1-0.6l15.5-10.5c1-0.7,1.6-1.8,1.6-3C45.7,30.9,45.2,29.7,44.1,29.1z"/>
</g>
</svg>
