<?xml version="1.0" standalone="no"?>
<!DOCTYPE svg PUBLIC "-//W3C//DTD SVG 20010904//EN"
 "http://www.w3.org/TR/2001/REC-SVG-20010904/DTD/svg10.dtd">
<svg version="1.0" xmlns="http://www.w3.org/2000/svg"
 width="310.000000pt" height="310.000000pt" viewBox="0 0 310.000000 310.000000"
 preserveAspectRatio="xMidYMid meet">
<metadata>
Created by potrace 1.11, written by Peter Selinger 2001-2013
</metadata>
<g transform="translate(0.000000,310.000000) scale(0.100000,-0.100000)"
fill="#000000" stroke="none">
<path d="M263 3080 c-119 -42 -208 -135 -247 -256 -15 -46 -16 -168 -14 -1295
l3 -1244 29 -57 c55 -112 154 -192 269 -218 32 -7 443 -10 1260 -10 1349 0
1259 -4 1368 69 67 45 123 118 149 196 20 58 20 79 18 1305 -3 1189 -4 1247
-22 1285 -50 108 -137 189 -241 225 -56 19 -84 20 -1289 19 -1171 -1 -1234 -1
-1283 -19z"/>
</g>
</svg>
