<?xml version="1.0" standalone="no"?>
<!DOCTYPE svg PUBLIC "-//W3C//DTD SVG 20010904//EN"
 "http://www.w3.org/TR/2001/REC-SVG-20010904/DTD/svg10.dtd">
<svg version="1.0" xmlns="http://www.w3.org/2000/svg"
 width="152.000000pt" height="152.000000pt" viewBox="0 0 152.000000 152.000000"
 preserveAspectRatio="xMidYMid meet">
<metadata>
Created by potrace 1.11, written by Peter Selinger 2001-2013
</metadata>
<g transform="translate(0.000000,152.000000) scale(0.100000,-0.100000)"
fill="#000000" stroke="none">
<path d="M100 1501 c-19 -10 -48 -35 -65 -55 l-30 -38 0 -648 0 -648 30 -38
c64 -78 23 -74 725 -74 702 0 661 -4 725 74 l30 38 0 648 0 648 -30 38 c-64
78 -23 74 -725 74 -590 0 -627 -1 -660 -19z m675 -175 c102 -3 142 -8 185 -24
75 -29 128 -75 156 -136 57 -122 10 -258 -115 -333 l-53 -32 40 -11 c92 -24
188 -120 213 -213 6 -23 9 -74 7 -113 -8 -128 -84 -224 -206 -261 -50 -16 -96
-18 -372 -16 l-315 2 0 23 c0 21 4 23 68 26 l67 3 0 519 0 520 -65 0 c-67 0
-85 11 -72 43 5 14 64 14 462 3z"/>
<path d="M670 1045 l0 -225 58 0 c78 0 120 24 152 86 22 42 25 61 25 149 0 82
-4 107 -21 139 -27 53 -73 76 -151 76 l-63 0 0 -225z"/>
<path d="M670 494 l0 -257 93 5 c118 6 159 24 188 84 42 89 35 272 -14 346
-42 62 -79 78 -178 78 l-89 0 0 -256z"/>
</g>
</svg>
