<?xml version="1.0" encoding="UTF-8"?>
<svg width="57px" height="47px" viewBox="0 0 57 47" version="1.1" xmlns="http://www.w3.org/2000/svg" xmlns:xlink="http://www.w3.org/1999/xlink">
    <!-- Generator: Sketch 43.2 (39069) - http://www.bohemiancoding.com/sketch -->
    <title>Fill 1</title>
    <desc>Created with Sketch.</desc>
    <defs></defs>
    <g id="Welcome" stroke="none" stroke-width="1" fill="none" fill-rule="evenodd">
        <g id="Desktop-HD-Copy-2" transform="translate(-85.000000, -578.000000)" fill="#6E1010">
            <g id="Page-1" transform="translate(85.000000, 578.000000)">
                <path d="M24.07965,26.1163333 L27.8312864,29.8946111 L29.6630591,28.0511667 L25.9140136,24.2702778 C25.3699227,24.9543889 24.7610591,25.5706111 24.07965,26.1163333 L24.07965,26.1163333 Z M7.76728636,24.2676667 L4.01565,28.0511667 L5.84742273,29.8946111 L9.59905909,26.1163333 C8.92024091,25.568 8.31137727,24.9517778 7.76728636,24.2676667 L7.76728636,24.2676667 Z M28.3676045,15.6666667 C28.4168318,16.1027222 28.4997409,16.5257222 28.4997409,16.9722222 C28.4997409,17.4187222 28.4168318,17.8443333 28.3676045,18.2777778 L33.6815591,18.2777778 L33.6815591,15.6666667 L28.3676045,15.6666667 Z M16.84065,28.7222222 C16.3976045,28.7222222 15.9752864,28.6386667 15.5451955,28.5916667 L15.5451955,33.9444444 L18.1361045,33.9444444 L18.1361045,28.5916667 C17.7060136,28.6386667 17.2836955,28.7222222 16.84065,28.7222222 L16.84065,28.7222222 Z M16.84065,5.22222222 C17.2836955,5.22222222 17.7060136,5.30577778 18.1361045,5.35277778 L18.1361045,0 L15.5451955,0 L15.5451955,5.35277778 C15.9752864,5.30577778 16.3976045,5.22222222 16.84065,5.22222222 L16.84065,5.22222222 Z M25.9140136,9.67416667 L29.6630591,5.89327778 L27.8312864,4.04722222 L24.07965,7.82811111 C24.7610591,8.37644444 25.3699227,8.99005556 25.9140136,9.67416667 L25.9140136,9.67416667 Z M9.59905909,7.83072222 L5.84742273,4.04722222 L4.01565,5.89327778 L7.76728636,9.67677778 C8.31137727,8.99266667 8.92024091,8.37644444 9.59905909,7.83072222 L9.59905909,7.83072222 Z M5.18155909,16.9722222 C5.18155909,16.5257222 5.26446818,16.1027222 5.31369545,15.6666667 L-0.000259090909,15.6666667 L-0.000259090909,18.2777778 L5.31369545,18.2777778 C5.26446818,17.8443333 5.18155909,17.4187222 5.18155909,16.9722222 L5.18155909,16.9722222 Z M16.84065,7.83333333 C11.8324227,7.83333333 7.77246818,11.9249444 7.77246818,16.9722222 C7.77246818,22.0195 11.8324227,26.1111111 16.84065,26.1111111 C21.8488773,26.1111111 25.9088318,22.0195 25.9088318,16.9722222 C25.9088318,11.9249444 21.8488773,7.83333333 16.84065,7.83333333 L16.84065,7.83333333 Z M16.84065,10.4444444 C20.4135136,10.4444444 23.3179227,13.3741111 23.3179227,16.9722222 C23.3179227,20.5703333 20.4135136,23.5 16.84065,23.5 C13.2677864,23.5 10.3633773,20.5703333 10.3633773,16.9722222 C10.3633773,13.3741111 13.2677864,10.4444444 16.84065,10.4444444 L16.84065,10.4444444 Z M48.9808773,30.8450556 C47.2320136,29.2940556 46.2034227,27.824 46.2034227,25.239 L46.2034227,13.9276667 L44.4778773,13.9276667 L44.4778773,25.239 C44.4778773,27.8213889 43.4466955,29.2966667 41.7004227,30.8450556 C40.3272409,32.0566111 39.2960591,33.699 39.2960591,35.6860556 C39.2960591,39.0491667 42.0035591,41.7777778 45.34065,41.7777778 C48.6777409,41.7777778 51.3852409,39.0491667 51.3852409,35.6860556 C51.3852409,33.699 50.3540591,32.0566111 48.9808773,30.8450556 L48.9808773,30.8450556 Z M45.34065,5.22222222 C42.0035591,5.22222222 39.2960591,7.94822222 39.2960591,11.3165556 L39.2960591,24.4138889 C39.2960591,25.4348333 38.8504227,26.4087778 38.0757409,27.0693889 C35.6532409,29.1426111 34.1142409,32.2315556 34.1142409,35.6860556 C34.1142409,41.9344444 39.1380136,47 45.34065,47 C51.5432864,47 56.5670591,41.9344444 56.5670591,35.6860556 C56.5670591,32.2315556 55.0280591,29.1426111 52.6055591,27.0693889 C51.8308773,26.4061667 51.3852409,25.4374444 51.3852409,24.4138889 L51.3852409,11.3165556 C51.3852409,7.94822222 48.6777409,5.22222222 45.34065,5.22222222 L45.34065,5.22222222 Z M45.34065,8.70544444 C46.7708318,8.70544444 47.9315591,9.87522222 47.9315591,11.3165556 L47.9315591,24.4138889 C47.9315591,27.1451111 48.8202409,28.3958333 50.3670136,29.7222778 C52.1132864,31.2158333 53.1133773,33.3882778 53.1133773,35.6860556 C53.1133773,40.0048333 49.6260136,43.5193889 45.34065,43.5193889 C41.0552864,43.5193889 37.5679227,40.0048333 37.5679227,35.6860556 C37.5679227,33.3882778 38.5680136,31.2158333 40.3142864,29.7222778 C41.8610591,28.3984444 42.7497409,27.1477222 42.7497409,24.4138889 L42.7497409,11.3165556 C42.7497409,9.87522222 43.9104682,8.70544444 45.34065,8.70544444 L45.34065,8.70544444 Z" id="Fill-1"></path>
            </g>
        </g>
    </g>
</svg>
