<?xml version="1.0" encoding="utf-8"?>
<!-- Generator: Adobe Illustrator 19.2.0, SVG Export Plug-In . SVG Version: 6.00 Build 0)  -->
<svg version="1.1" id="Layer_1" xmlns="http://www.w3.org/2000/svg" xmlns:xlink="http://www.w3.org/1999/xlink" x="0px" y="0px"
	 viewBox="0 0 82 82" style="enable-background:new 0 0 82 82;" xml:space="preserve">
<style type="text/css">
	.st0{fill:#FFFFFF;}
</style>
<title>facebook</title>
<path id="Facebook" class="st0" d="M80,75.7c0,2.4-1.9,4.3-4.3,4.3l0,0H55.8V49.8h10.1L67.5,38H55.8v-7.5c0-3.4,1-5.7,5.8-5.7h6.2
	V14.3c-3-0.3-6-0.5-9.1-0.5c-9,0-15.1,5.5-15.1,15.5V38H33.5v11.8h10.1V80H6.3C3.9,80,2,78.1,2,75.7l0,0V6.3C2,3.9,3.9,2,6.3,2h69.4
	C78.1,2,80,3.9,80,6.3l0,0V75.7z"/>
</svg>
