<svg id="Layer_1" data-name="Layer 1" xmlns="http://www.w3.org/2000/svg" viewBox="0 0 60 60"><defs><style>.cls-1{fill:#25d366;}.cls-2{fill:#fff;fill-rule:evenodd;}</style></defs><title>wapp</title><circle class="cls-1" cx="30" cy="30" r="29.84"/><g id="WA_Logo" data-name="WA Logo"><path class="cls-2" d="M43.64,15.29A19,19,0,0,0,13.72,38.23L11,48.08,21.1,45.43a19,19,0,0,0,9.08,2.31h0A19,19,0,0,0,43.64,15.29ZM30.19,44.54h0a15.77,15.77,0,0,1-8-2.2L21.57,42l-6,1.57,1.6-5.83-.38-.6a15.8,15.8,0,1,1,13.38,7.4ZM38.86,32.7c-.47-.24-2.81-1.39-3.25-1.55s-.75-.24-1.07.24-1.23,1.55-1.5,1.86-.55.36-1,.12A13,13,0,0,1,28.19,31a14.31,14.31,0,0,1-2.64-3.29c-.28-.48,0-.73.21-1s.47-.55.71-.83a3.24,3.24,0,0,0,.47-.79.87.87,0,0,0,0-.83c-.12-.24-1.07-2.58-1.46-3.53s-.78-.8-1.07-.82l-.91,0a1.74,1.74,0,0,0-1.27.59,5.33,5.33,0,0,0-1.66,4,9.24,9.24,0,0,0,1.94,4.91c.24.32,3.35,5.11,8.11,7.17a27.28,27.28,0,0,0,2.71,1,6.51,6.51,0,0,0,3,.19c.91-.14,2.81-1.15,3.21-2.26a4,4,0,0,0,.28-2.26C39.65,33.06,39.33,32.94,38.86,32.7Z"/></g></svg>