<?xml version="1.0" encoding="utf-8"?>
<!-- Generator: Adobe Illustrator 19.2.0, SVG Export Plug-In . SVG Version: 6.00 Build 0)  -->
<svg version="1.1" id="Layer_1" xmlns="http://www.w3.org/2000/svg" xmlns:xlink="http://www.w3.org/1999/xlink" x="0px" y="0px"
	 viewBox="0 0 32 32" style="enable-background:new 0 0 32 32;" xml:space="preserve">
<style type="text/css">
	.st0{fill:#FFFFFF;}
</style>
<g>
	<g>
		<path class="st0" d="M28.2,16.2c-0.3-1.3-1.4-2.3-2.7-2.5c-3.1-0.3-6.3-0.4-9.4-0.3c-3.1,0-6.3,0-9.4,0.3
			c-1.3,0.1-2.4,1.1-2.7,2.5c-0.4,1.9-0.4,4-0.4,6s0,4,0.4,6c0.3,1.3,1.4,2.3,2.7,2.5C9.8,31,13,31.1,16.1,31c3.1,0,6.3,0,9.4-0.3
			c1.3-0.1,2.4-1.1,2.7-2.5c0.4-1.9,0.4-4,0.4-6S28.6,18.1,28.2,16.2z M10.6,17.7H8.8v9.7H7.1v-9.7H5.3v-1.6h5.3V17.7z M15.2,27.3
			h-1.5v-0.9c-0.6,0.7-1.2,1-1.7,1s-0.8-0.2-1-0.6c-0.1-0.3-0.1-0.7-0.1-1.2V19h1.5v6.2c0,0.4,0,0.5,0,0.6c0,0.2,0.2,0.4,0.4,0.4
			c0.3,0,0.6-0.2,1-0.7V19h1.5L15.2,27.3L15.2,27.3z M21,24.8c0,0.8-0.1,1.3-0.2,1.7c-0.2,0.6-0.6,0.9-1.2,0.9
			c-0.5,0-1.1-0.3-1.6-0.9v0.8h-1.5V16.1H18v3.7c0.5-0.6,1-0.9,1.6-0.9s1,0.3,1.2,0.9c0.1,0.3,0.2,0.9,0.2,1.7
			C21,21.5,21,24.8,21,24.8z M26.7,23.4h-3v1.5c0,0.8,0.3,1.2,0.8,1.2c0.4,0,0.6-0.2,0.7-0.6c0-0.1,0-0.4,0-1h1.6v0.2
			c0,0.5,0,0.8,0,1c-0.1,0.3-0.2,0.6-0.4,0.9c-0.4,0.6-1,0.9-1.8,0.9s-1.4-0.3-1.8-0.9c-0.3-0.4-0.5-1.1-0.5-2v-2.9
			c0-0.9,0.1-1.6,0.5-2c0.4-0.6,1-0.9,1.8-0.9s1.4,0.3,1.8,0.9c0.3,0.4,0.5,1.1,0.5,2L26.7,23.4L26.7,23.4z"/>
		<path class="st0" d="M24.4,20.2c-0.5,0-0.8,0.4-0.8,1.2v0.8h1.5v-0.8C25.2,20.6,24.9,20.2,24.4,20.2z"/>
		<path class="st0" d="M18.8,20.2c-0.3,0-0.5,0.1-0.8,0.4v5.1c0.3,0.3,0.5,0.4,0.8,0.4c0.4,0,0.7-0.4,0.7-1.1v-3.6
			C19.4,20.6,19.2,20.2,18.8,20.2z"/>
		<path class="st0" d="M19.6,12.6c0.6,0,1.1-0.3,1.8-1v0.9h1.5V4h-1.5v6.5c-0.3,0.5-0.7,0.7-1,0.7c-0.2,0-0.3-0.1-0.4-0.4
			c0-0.1,0-0.2,0-0.6V4h-1.5v6.7c0,0.6,0.1,1,0.1,1.3C18.8,12.4,19.1,12.6,19.6,12.6z"/>
		<path class="st0" d="M8.9,7.9v4.6h1.7V7.9l2.1-6.8H11L9.8,5.6L8.6,1.1H6.8c0.4,1.1,0.7,2.1,1.1,3.2C8.4,5.8,8.8,7,8.9,7.9z"/>
		<path class="st0" d="M15,12.6c0.8,0,1.4-0.3,1.8-0.9c0.3-0.4,0.5-1.1,0.5-2v-3c0-0.9-0.2-1.6-0.5-2c-0.4-0.6-1-0.9-1.8-0.9
			s-1.4,0.3-1.8,0.9c-0.3,0.4-0.5,1.1-0.5,2v3c0,0.9,0.2,1.6,0.5,2C13.6,12.3,14.2,12.6,15,12.6z M14.2,6.4c0-0.8,0.2-1.2,0.7-1.2
			s0.7,0.4,0.7,1.2V10c0,0.8-0.2,1.2-0.7,1.2s-0.7-0.4-0.7-1.2V6.4z"/>
	</g>
</g>
</svg>
