<?xml version="1.0" encoding="utf-8"?>
<!-- Generator: Adobe Illustrator 19.2.0, SVG Export Plug-In . SVG Version: 6.00 Build 0)  -->
<svg version="1.1" id="Layer_1" xmlns="http://www.w3.org/2000/svg" xmlns:xlink="http://www.w3.org/1999/xlink" x="0px" y="0px"
	 viewBox="0 0 29 23" style="enable-background:new 0 0 29 23;" xml:space="preserve">
<style type="text/css">
	.st0{fill:#FFFFFF;}
</style>
<path id="hamburg-menu_copy_2" class="st0" d="M3,0h22c1.1,0,2,0.9,2,2s-0.9,2-2,2H3C1.9,4,1,3.1,1,2S1.9,0,3,0z M3,8h22
	c1.1,0,2,0.9,2,2s-0.9,2-2,2H3c-1.1,0-2-0.9-2-2S1.9,8,3,8z M3,16h22c1.1,0,2,0.9,2,2s-0.9,2-2,2H3c-1.1,0-2-0.9-2-2S1.9,16,3,16z"
	/>
</svg>
