<svg id="Camada_1" data-name="Camada 1" xmlns="http://www.w3.org/2000/svg" viewBox="0 0 490.08 89.81"><defs><style>.cls-1{fill:#fff;}.cls-2{fill:none;stroke:#fff;stroke-miterlimit:10;}</style></defs><title>logo-tagline</title><path class="cls-1" d="M54.13,76.16q5.3,0,7.42-2.95t2.11-10.38q0-6.38-2.61-10.09A8.57,8.57,0,0,0,53.59,49H47.21V76.16h6.91ZM49.82,45.5q5,0,7.3-2.57,2.69-3.05,2.69-10.44,0-6.18-2.11-8.72t-7.34-2.53H47.21V45.5h2.61ZM38.37,79.39q-4.53,0-6.42.15t-3,.31a1.3,1.3,0,0,1-1-.44,1.73,1.73,0,0,1-.42-1.25q0-1.69,1.38-1.69h6.3V20.76H29a1.29,1.29,0,0,1-1-.44,1.72,1.72,0,0,1-.42-1.25q0-1.69,1.38-1.69,1.15,0.16,4.19.32t5.19,0.16H52.74q9.6,0,14.91,4.23a12.69,12.69,0,0,1,4.92,10.46,13.08,13.08,0,0,1-3.3,8.79,15.57,15.57,0,0,1-7.38,4.87A18.26,18.26,0,0,1,72.3,52a15.66,15.66,0,0,1,4.11,10.85q0,7.91-5.19,12.46t-15,4.56q-2.61,0-6-.12T43,79.39H38.37Z" transform="translate(-27.62 -9.52)"/><path class="cls-1" d="M100.23,43.36A13.49,13.49,0,0,1,104.79,37a11,11,0,0,1,6.68-2.25A9.32,9.32,0,0,1,118,37a7.33,7.33,0,0,1,2.54,5.66,7.83,7.83,0,0,1-1.65,5.17,5.38,5.38,0,0,1-4.35,2A5.57,5.57,0,0,1,110.33,48a6.09,6.09,0,0,1-1.73-4.37,6.35,6.35,0,0,1,.59-2.69,5.14,5.14,0,0,1,1.52-2q-4.31-.71-7.18,4.23-3.3,5.64-3.3,16.83V74.64h6.51a1.43,1.43,0,0,1,1.06.48,1.91,1.91,0,0,1,.47,1.37q0,1.86-1.52,1.86a10.38,10.38,0,0,1-1.35-.09,69.29,69.29,0,0,0-8.54-.44H91.35q-6.34,0-7.78.18a17.3,17.3,0,0,0-2.11.35,1.43,1.43,0,0,1-1.06-.49,1.9,1.9,0,0,1-.47-1.37q0-1.86,1.52-1.85H88V39.74a44.08,44.08,0,0,0-4.52.15q-1.14.15-2,.29a1.43,1.43,0,0,1-1.06-.49,1.9,1.9,0,0,1-.47-1.37q0-1.86,1.52-1.85H88q5.33,0,7.35-.13T98.7,36a1.43,1.43,0,0,1,1.06.49,1.91,1.91,0,0,1,.47,1.37v5.48Z" transform="translate(-27.62 -9.52)"/><path class="cls-1" d="M142.65,69.61V58.47q-10.73,0-10.73,9.81a5.59,5.59,0,0,0,1.23,3.8,3.59,3.59,0,0,0,2.75,1.41,6.59,6.59,0,0,0,3-.88,16.43,16.43,0,0,0,3.8-3M131,40.27q2.7,1.15,2.7,4.77a5.71,5.71,0,0,1-1.56,4.11,5.21,5.21,0,0,1-3.93,1.64,4.94,4.94,0,0,1-3.85-1.64A5.89,5.89,0,0,1,122.88,45q0-4.59,4.48-7.47a17.4,17.4,0,0,1,9.55-2.87q9.55,0,13.78,4.79T154.91,55v17.4q0,2.75,1.1,2.75a2.13,2.13,0,0,0,1.69-1q1.44-1.86,1.61-2a2.05,2.05,0,0,1,1.27-.56,2.38,2.38,0,0,1,1.69.91,2.14,2.14,0,0,1,.42,1.17,2.75,2.75,0,0,1-1.1,2.35,13.14,13.14,0,0,1-9.38,3.35q-4.65,0-6.88-1.82a9.66,9.66,0,0,1-2.67-4.46,25,25,0,0,1-6.75,4.82,15.51,15.51,0,0,1-6.42,1.46,10,10,0,0,1-7-2.56,9.19,9.19,0,0,1-2.81-7.16q0-7.07,7.1-10.87,6.25-3.36,15.89-3.36V45q0-3.89-1.27-5.48T136.91,38q-4.56,0-5.92,2.3" transform="translate(-27.62 -9.52)"/><path class="cls-1" d="M187.45,40.71a6.52,6.52,0,0,0-3-1.81,13.58,13.58,0,0,0-4.56-.75q-7.86,0-7.86,6.19,0,4.24,7.61,6.36l5,1.42Q196.83,55.47,196.83,66a12.11,12.11,0,0,1-4.94,10,19.29,19.29,0,0,1-12.21,3.84,20.14,20.14,0,0,1-12.17-3.62q-5-3.62-5-8.31A5.52,5.52,0,0,1,164,63.69a5.05,5.05,0,0,1,3.55-1.41,4.53,4.53,0,0,1,3.38,1.5,5,5,0,0,1,1.44,3.53A4.72,4.72,0,0,1,169.28,72a9.33,9.33,0,0,0,4.52,3.14,18.73,18.73,0,0,0,6.21,1,9.69,9.69,0,0,0,6.13-1.81,6.07,6.07,0,0,0,2.32-5.08,5,5,0,0,0-2.49-4.2,23.41,23.41,0,0,0-6.89-3l-4.31-1.24q-10.9-3.18-10.9-13.17A11.49,11.49,0,0,1,169,37.62a18.41,18.41,0,0,1,10.65-3,19.66,19.66,0,0,1,10,2.39q4.73,2.74,4.73,7.16a5.76,5.76,0,0,1-1.48,4.28,4.83,4.83,0,0,1-3.51,1.46,4.32,4.32,0,0,1-3.25-1.37,4.73,4.73,0,0,1-1.31-3.4,4.89,4.89,0,0,1,.68-2.61,5.18,5.18,0,0,1,1.94-1.81" transform="translate(-27.62 -9.52)"/><path class="cls-1" d="M220.83,19.15a7.22,7.22,0,0,1-2.07,5.17,6.61,6.61,0,0,1-4.95,2.17A6.34,6.34,0,0,1,209,24.32a7.38,7.38,0,0,1-2-5.17A7.39,7.39,0,0,1,209,14a6.34,6.34,0,0,1,4.86-2.17A6.61,6.61,0,0,1,218.76,14a7.23,7.23,0,0,1,2.07,5.17M220,74.64h6.51a1.43,1.43,0,0,1,1.06.49A1.9,1.9,0,0,1,228,76.5q0,1.86-1.52,1.86a10.59,10.59,0,0,1-1.35-.09,69.26,69.26,0,0,0-8.54-.44h-5.49q-6.34,0-7.78.18a17.42,17.42,0,0,0-2.11.35,1.43,1.43,0,0,1-1.06-.49,1.9,1.9,0,0,1-.46-1.37q0-1.86,1.52-1.86h6.51V39.74a44.08,44.08,0,0,0-4.52.15q-1.14.15-2,.29a1.42,1.42,0,0,1-1.06-.48,1.9,1.9,0,0,1-.46-1.37q0-1.86,1.52-1.86h6.51q5.58,0,7.52-.13t3.21-.31a1.43,1.43,0,0,1,1.06.48,1.9,1.9,0,0,1,.47,1.37V74.64Z" transform="translate(-27.62 -9.52)"/><path class="cls-1" d="M247.62,74.64h6.51a1.43,1.43,0,0,1,1.06.49,1.91,1.91,0,0,1,.46,1.37q0,1.86-1.52,1.86a10.57,10.57,0,0,1-1.35-.09,69.28,69.28,0,0,0-8.54-.44h-5.49q-6.34,0-7.78.18a17.44,17.44,0,0,0-2.11.35,1.43,1.43,0,0,1-1.06-.49,1.9,1.9,0,0,1-.47-1.37q0-1.86,1.52-1.86h6.51V13.23a43.59,43.59,0,0,0-4.52.15q-1.14.15-2,.29a1.42,1.42,0,0,1-1.06-.49,1.89,1.89,0,0,1-.47-1.37q0-1.86,1.52-1.86h6.51q5,0,7.1-.13t3.63-.31a1.43,1.43,0,0,1,1.06.49,1.9,1.9,0,0,1,.47,1.37V74.64Z" transform="translate(-27.62 -9.52)"/><path class="cls-1" d="M295.22,60.4q0-7.4-3-12.06-2.7-4.2-6.28-4.2-2.78,0-3.61,3.43T281.49,60.4q0,9.69.8,13t3.65,3.28q3.57,0,6.28-4.12,3-4.65,3-12.13m0-37.93a38,38,0,0,0-3.91.13q-1,.13-1.72.25a1.23,1.23,0,0,1-.91-0.42,1.64,1.64,0,0,1-.4-1.18q0-1.6,1.31-1.6h5.62q4.53,0,6.28-.11t3-.27a1.24,1.24,0,0,1,.91.42,1.65,1.65,0,0,1,.4,1.18V75.51a36.53,36.53,0,0,0,3.87-.13l1.75-.26a1.24,1.24,0,0,1,.91.42,1.65,1.65,0,0,1,.4,1.18q0,1.6-1.31,1.6H305.8q-4.16,0-6.06.11t-3.21.27a1.24,1.24,0,0,1-.91-0.42,1.64,1.64,0,0,1-.4-1.18V73.22q-3.72,6.64-10.37,6.64a12.8,12.8,0,0,1-10.62-5.38q-4.12-5.38-4.12-14.08t4.09-14.08a12.78,12.78,0,0,1,10.66-5.38,10.75,10.75,0,0,1,5.84,1.76,13.38,13.38,0,0,1,4.53,4.88V22.47Z" transform="translate(-27.62 -9.52)"/><path class="cls-1" d="M326.46,53.68H337a10.9,10.9,0,0,0,.73-4.09,6.78,6.78,0,0,0-1.17-4,4,4,0,0,0-3.5-1.63,5.11,5.11,0,0,0-4.42,2.39q-1.64,2.39-2.15,7.38m-0.29,3.2-0.07,3.45q0,9,2.08,12.72a7,7,0,0,0,6.53,3.75,12.26,12.26,0,0,0,7-2,10.78,10.78,0,0,0,4.2-5.77,2.67,2.67,0,0,1,.44-1,1.16,1.16,0,0,1,.95-0.46A1.22,1.22,0,0,1,348.72,69a3.51,3.51,0,0,1-.07.61q-0.15.62-.29,1.08a14.13,14.13,0,0,1-6.5,7.3,17.46,17.46,0,0,1-8.25,1.92A18.63,18.63,0,0,1,320.54,75q-5.84-5.34-5.84-14.65t5.77-14.58a17.9,17.9,0,0,1,12.63-4.88q6.93,0,11.13,4.06a13.71,13.71,0,0,1,4.2,10.29v1.59H326.16Z" transform="translate(-27.62 -9.52)"/><path class="cls-1" d="M379.44,49V76.48h6.3a1.3,1.3,0,0,1,1,.44,1.73,1.73,0,0,1,.42,1.25q0,1.69-1.38,1.69-1.15-.16-4.19-0.32t-5.19-.16H370.6q-4.53,0-6.42.16t-3,.32a1.3,1.3,0,0,1-1-.44,1.72,1.72,0,0,1-.42-1.24q0-1.69,1.38-1.69h6.3V20.65h-6.3a1.29,1.29,0,0,1-1-.44,1.72,1.72,0,0,1-.42-1.25q0-1.69,1.38-1.69,1.15,0.19,4.19.38t5.19,0.19h28.28a16.64,16.64,0,0,0,2.34-.17l2.8-.39a1.3,1.3,0,0,1,1,.44,1.73,1.73,0,0,1,.42,1.24v3q0,3.3.12,5.87t0.35,5.78A1.28,1.28,0,0,1,404.41,35a1.52,1.52,0,0,1-1.15-.4,1.45,1.45,0,0,1-.38-1q0-6.1-2-9.08-2.23-3.29-7.14-3.29H379.44V45.48H387q7.22,0,7.22-7.39,0-1.45,1.15-1.45t1.15,1.45V56.4q0,1.45-1.15,1.45t-1.15-1.45a7.47,7.47,0,0,0-1.88-5.5A7.21,7.21,0,0,0,387,49h-7.53Z" transform="translate(-27.62 -9.52)"/><path class="cls-1" d="M423.8,69.69V58.56q-10.74,0-10.73,9.81a5.59,5.59,0,0,0,1.22,3.8A3.59,3.59,0,0,0,417,73.58a6.59,6.59,0,0,0,3-.88,16.43,16.43,0,0,0,3.8-3M412.14,40.36q2.7,1.15,2.7,4.77a5.71,5.71,0,0,1-1.56,4.11,5.22,5.22,0,0,1-3.93,1.64,4.94,4.94,0,0,1-3.85-1.64A5.89,5.89,0,0,1,404,45.13q0-4.59,4.48-7.47a17.4,17.4,0,0,1,9.55-2.87q9.55,0,13.78,4.79t4.23,15.53v17.4q0,2.75,1.1,2.75a2.13,2.13,0,0,0,1.69-1q1.44-1.86,1.61-2a2.05,2.05,0,0,1,1.27-.56,2.38,2.38,0,0,1,1.69.91,2.15,2.15,0,0,1,.42,1.17,2.75,2.75,0,0,1-1.1,2.35,13.14,13.14,0,0,1-9.38,3.35q-4.65,0-6.88-1.82a9.66,9.66,0,0,1-2.67-4.46A25,25,0,0,1,417,78a15.51,15.51,0,0,1-6.42,1.46,10,10,0,0,1-7-2.56,9.2,9.2,0,0,1-2.81-7.16q0-7.07,7.1-10.87,6.25-3.36,15.89-3.36V45.13q0-3.89-1.27-5.48t-4.48-1.59q-4.56,0-5.92,2.3" transform="translate(-27.62 -9.52)"/><path class="cls-1" d="M456.09,26.31q0.93-4.77,1.27-6,0.76-2.74,2.28-2.74,1.77,0,1.77,4.06V36.38l9.89-.09A1.42,1.42,0,0,1,472.82,38a1.7,1.7,0,0,1-.42,1.26,1.49,1.49,0,0,1-1.1.42h-9.89v31.8q0,4.34,2.45,4.34a3.34,3.34,0,0,0,2.79-2,11.26,11.26,0,0,0,1.27-4.15q0.34-2.54,2.2-2.54T472,69.36a9.59,9.59,0,0,1-2.87,6.76,11.89,11.89,0,0,1-9,3.56,10.47,10.47,0,0,1-7.69-2.84q-3.21-3.19-3.21-8.94V39.65H441.8A1.42,1.42,0,0,1,440.28,38a1.71,1.71,0,0,1,.42-1.26,1.5,1.5,0,0,1,1.1-.42q7.77,0,10.14-1.5,2.87-1.86,4.14-8.48" transform="translate(-27.62 -9.52)"/><path class="cls-1" d="M504.52,57.32q0-11.75-1.69-15.42T496,38.24q-5.16,0-6.85,3.67t-1.69,15.42q0,11.75,1.69,15.42T496,76.41q5.15,0,6.85-3.67t1.69-15.42m13.18,0q0,9.9-6.21,16.21a22.2,22.2,0,0,1-31,0q-6.25-6.27-6.26-16.26t6.21-16.21a22.2,22.2,0,0,1,31,0q6.25,6.27,6.25,16.26" transform="translate(-27.62 -9.52)"/><line class="cls-2" x1="1.48" y1="84.21" x2="74.09" y2="84.21"/><line class="cls-2" x1="416.21" y1="84.21" x2="484.56" y2="84.21"/><path class="cls-1" d="M426.2,94.8A3.1,3.1,0,1,1,429.3,98a3,3,0,0,1-3.1-3.18m-1.42,0a4.53,4.53,0,1,0,4.52-4.53,4.44,4.44,0,0,0-4.52,4.53m-9.05,3.06V91.74h2.33a3,3,0,0,1,3.09,3.1,2.92,2.92,0,0,1-3,3h-2.39Zm-1.38-7.42v8.72h3.77a4.27,4.27,0,0,0,4.46-4.32,4.34,4.34,0,0,0-4.52-4.39h-3.71Zm-4.57,0v3.71c0,1.37,0,2.65,0,2.65h0s-0.89-1.22-1.51-2.07l-3.2-4.29h-1.29v8.72h1.38v-3.7c0-1.56,0-2.73,0-2.73h0s0.76,1.08,1.53,2.14l3.18,4.28h1.29V90.45h-1.38Zm-10.17,0v5c0,1.76-.79,2.6-2.3,2.6s-2.28-.85-2.28-2.6v-5h-1.38v5c0,2.52,1.37,3.87,3.66,3.87S401,98,401,95.46v-5H399.6Zm-10.07,0-2,3.34c-0.71,1.2-.84,1.49-0.85,1.49h0s-0.14-.3-0.86-1.49l-2-3.34h-1.29v8.72h1.36V95.84c0-1.58-.06-3.08,0-3.08h0s0.54,0.92.76,1.32L386.33,97H387l1.69-2.93c0.22-.4.76-1.32,0.77-1.32h0s-0.06,1.5-.06,3.08v3.32h1.36V90.45h-1.29ZM368.22,94.8a3.1,3.1,0,1,1,3.1,3.18,3,3,0,0,1-3.1-3.18m-1.42,0a4.53,4.53,0,1,0,4.52-4.53,4.44,4.44,0,0,0-4.52,4.53m-9.05,3.06V91.74h2.33a3,3,0,0,1,3.09,3.1,2.92,2.92,0,0,1-3,3h-2.39Zm-1.38-7.42v8.72h3.77a4.27,4.27,0,0,0,4.46-4.32,4.34,4.34,0,0,0-4.52-4.39h-3.71Zm-11.69,7.42V95.23h3.67V94h-3.67V91.74h4.61V90.45h-6v8.72h6.06V97.87h-4.68Zm-12.31,0V90.45H331v8.72h5.86V97.87h-4.48Zm-4.57-7.42h-1.38v8.72h1.38V90.45Zm-4,2.18a3.14,3.14,0,0,0-3.21-2.35c-1.79,0-3.1,1.08-3.1,2.44,0,1.52,1.38,2,2.4,2.35,1.23,0.41,2.58.64,2.58,1.72,0,0.75-.65,1.32-1.76,1.32a2.1,2.1,0,0,1-2.18-1.72l-1.32.36a3.33,3.33,0,0,0,3.45,2.59c1.94,0,3.25-1.09,3.25-2.6s-1.56-2.24-2.8-2.64-2.22-.62-2.22-1.46,0.66-1.17,1.63-1.17a1.91,1.91,0,0,1,2,1.52ZM310.07,96l1.12-2.73c0.19-.47.4-1.13,0.41-1.13h0s0.23,0.66.41,1.13L313.15,96h-3.08Zm4.38,3.19h1.48l-3.69-8.72H311l-3.68,8.72h1.48l0.81-2h4.07Zm-13.95-4.33V91.74h1.63a1.56,1.56,0,1,1,0,3.09h-1.63Zm5.14,4.33-2.07-3.37a2.53,2.53,0,0,0,1.74-2.52c0-1.72-1.26-2.83-3.35-2.83h-2.85v8.72h1.38V96h1.74l1.84,3.13h1.56ZM291.4,98V95.06h2a1.54,1.54,0,0,1,1.68,1.47A1.48,1.48,0,0,1,293.47,98H291.4Zm0-4V91.61h1.78a1.27,1.27,0,0,1,1.46,1.18,1.31,1.31,0,0,1-1.46,1.2H291.4ZM290,90.45v8.72h3.57c1.93,0,3-1.09,3-2.59a2.32,2.32,0,0,0-1.84-2.15h0A1.91,1.91,0,0,0,296,92.64a2.3,2.3,0,0,0-2.57-2.19H290ZM275.69,94.8a3.1,3.1,0,1,1,3.1,3.18,3,3,0,0,1-3.1-3.18m-1.42,0a4.53,4.53,0,1,0,4.52-4.53,4.44,4.44,0,0,0-4.52,4.53m-9.05,3.06V91.74h2.33a3,3,0,0,1,3.09,3.1,2.92,2.92,0,0,1-3,3h-2.39Zm-1.38-7.42v8.72h3.77a4.27,4.27,0,0,0,4.46-4.32,4.34,4.34,0,0,0-4.52-4.39h-3.71ZM252,94.83V91.74h1.63a1.56,1.56,0,1,1,0,3.09H252Zm5.14,4.33-2.06-3.37a2.53,2.53,0,0,0,1.74-2.52c0-1.72-1.26-2.83-3.35-2.83h-2.85v8.72H252V96h1.74l1.84,3.13h1.56ZM242.69,96l1.12-2.73c0.19-.47.4-1.13,0.41-1.13h0s0.22,0.66.41,1.13L245.77,96h-3.07Zm4.38,3.19h1.48l-3.68-8.72h-1.28l-3.68,8.72h1.48l0.81-2h4.07Zm-13.3-1.29V90.45H232.4v8.72h5.86V97.87h-4.48Zm-5.56-7.42v5c0,1.76-.78,2.6-2.3,2.6s-2.28-.85-2.28-2.6v-5h-1.38v5c0,2.52,1.37,3.87,3.66,3.87s3.67-1.36,3.67-3.87v-5h-1.37Zm-12.9,4.41V91.74h1.48c1.18,0,1.91.55,1.91,1.56s-0.69,1.56-1.91,1.56h-1.48Zm-1.38-4.41v8.72h1.38v-3h1.51c2.07,0,3.31-1.07,3.31-2.85s-1.24-2.85-3.31-2.85h-2.89ZM203.82,94.8a3.1,3.1,0,1,1,3.1,3.18,3,3,0,0,1-3.1-3.18m-1.42,0a4.53,4.53,0,1,0,4.52-4.53,4.44,4.44,0,0,0-4.52,4.53m-6.79.05V91.74h1.48c1.18,0,1.91.55,1.91,1.56s-0.68,1.56-1.91,1.56h-1.48Zm-1.38-4.41v8.72h1.38v-3h1.51c2.07,0,3.31-1.07,3.31-2.85s-1.24-2.85-3.31-2.85h-2.89ZM179.9,94.8A3.1,3.1,0,1,1,183,98a3,3,0,0,1-3.1-3.18m-1.42,0A4.53,4.53,0,1,0,183,90.27a4.44,4.44,0,0,0-4.52,4.53m-7,1.17,1.12-2.73c0.19-.47.4-1.13,0.41-1.13h0s0.23,0.66.41,1.13L174.57,96h-3.08Zm4.38,3.19h1.48l-3.68-8.72h-1.28l-3.68,8.72h1.48l0.81-2h4.07Zm-1.44-10.87a0.57,0.57,0,0,1-.59.57c-0.55,0-.92-0.73-1.77-0.73a1.49,1.49,0,0,0-1.57,1.51h1.08a0.56,0.56,0,0,1,.6-0.56c0.56,0,1,.72,1.77.72a1.49,1.49,0,0,0,1.57-1.51h-1.09Zm-7.26,4.33A3.14,3.14,0,0,0,164,90.27c-1.79,0-3.1,1.08-3.1,2.44,0,1.52,1.38,2,2.4,2.35,1.23,0.41,2.58.64,2.58,1.72,0,0.75-.65,1.32-1.76,1.32a2.1,2.1,0,0,1-2.18-1.72l-1.32.36A3.33,3.33,0,0,0,164,99.33c1.94,0,3.25-1.09,3.25-2.6s-1.55-2.24-2.8-2.64-2.22-.62-2.22-1.46,0.66-1.17,1.63-1.17a1.91,1.91,0,0,1,2,1.52Zm-9.05-2.18h-1.38v8.72h1.38V90.45Zm-4.94,0-2.32,5.76c-0.29.74-.48,1.41-0.5,1.41h0s-0.23-.67-0.5-1.41l-2.31-5.77H146l3.6,8.72h1.44l3.6-8.72h-1.49ZM134.76,96l1.12-2.73c0.19-.47.4-1.13,0.41-1.13h0s0.23,0.66.41,1.13L137.83,96h-3.08Zm4.38,3.19h1.48l-3.69-8.72h-1.28L132,99.16h1.48l0.81-2h4.07Zm-10.53-8.72-2,3.34c-0.71,1.2-.83,1.49-0.85,1.49h0s-0.14-.3-0.86-1.49l-2-3.34h-1.29v8.72H123V95.84c0-1.58-.06-3.08,0-3.08h0s0.54,0.92.76,1.32L125.4,97h0.72l1.69-2.93c0.22-.4.76-1.32,0.77-1.32h0s-0.06,1.5-.06,3.08v3.32h1.36V90.45h-1.29Zm-11.16,0v5c0,1.76-.78,2.6-2.3,2.6s-2.28-.85-2.28-2.6v-5h-1.38v5c0,2.52,1.37,3.87,3.66,3.87s3.67-1.36,3.67-3.87v-5h-1.37Z" transform="translate(-27.62 -9.52)"/></svg>