<?xml version="1.0" encoding="utf-8"?>
<!-- Generator: Adobe Illustrator 19.2.0, SVG Export Plug-In . SVG Version: 6.00 Build 0)  -->
<svg version="1.1" id="Isolation_Mode" xmlns="http://www.w3.org/2000/svg" xmlns:xlink="http://www.w3.org/1999/xlink" x="0px"
	 y="0px" viewBox="0 0 512 97.2" style="enable-background:new 0 0 512 97.2;" xml:space="preserve">
<style type="text/css">
	.st0{fill:#FFFFFF;}
</style>
<g>
	<g>
		<g>
			<path class="st0" d="M37.3,80.8c3.5,0,6-1,7.4-2.9c1.4-2,2.1-5.4,2.1-10.4c0-4.3-0.9-7.6-2.6-10.1c-1.7-2.5-4.2-3.7-7.5-3.7h-6.4
				v27.1H37.3z M33,50.2c3.3,0,5.8-0.9,7.3-2.6c1.8-2,2.7-5.5,2.7-10.4c0-4.1-0.7-7-2.1-8.7C39.5,26.8,37,26,33.6,26h-3.2v24.3H33
				V50.2z M21.5,84.1c-3,0-5.2,0.1-6.4,0.2c-1.3,0.1-2.2,0.2-3,0.3c-0.4,0-0.7-0.1-1-0.4s-0.4-0.7-0.4-1.2c0-1.1,0.5-1.7,1.4-1.7
				h6.3V25.4h-6.3c-0.4,0-0.7-0.1-1-0.4s-0.4-0.7-0.4-1.2c0-1.1,0.5-1.7,1.4-1.7c0.8,0.1,2.2,0.2,4.2,0.3c2,0.1,3.8,0.2,5.2,0.2h4.6
				h9.8c6.4,0,11.4,1.4,14.9,4.2c3.3,2.6,4.9,6.1,4.9,10.5c0,3.3-1.1,6.2-3.3,8.8c-2,2.3-4.5,4-7.4,4.9c4.2,0.8,7.7,2.7,10.4,5.8
				c2.7,3,4.1,6.7,4.1,10.8c0,5.3-1.7,9.4-5.2,12.5c-3.5,3-8.5,4.6-15,4.6c-1.7,0-3.7,0-6-0.1c-2.2-0.1-4.6-0.2-7.3-0.3h-4.5V84.1z"
				/>
			<path class="st0" d="M83.4,48c1-2.8,2.5-4.9,4.6-6.4c2-1.5,4.3-2.3,6.7-2.3c2.6,0,4.8,0.8,6.5,2.3s2.5,3.4,2.5,5.7
				c0,2.1-0.5,3.8-1.6,5.2c-1.1,1.3-2.6,2-4.4,2c-1.6,0-3-0.6-4.2-1.8s-1.7-2.7-1.7-4.4c0-0.9,0.2-1.8,0.6-2.7s0.9-1.5,1.5-2
				c-2.9-0.5-5.3,0.9-7.2,4.2c-2.2,3.8-3.3,9.4-3.3,16.8v14.6h6.5c0.4,0,0.7,0.2,1.1,0.5c0.3,0.3,0.5,0.8,0.5,1.4
				c0,1.2-0.5,1.9-1.5,1.9c-0.5,0-0.9,0-1.4-0.1c-2.3-0.3-5.2-0.4-8.5-0.4h-5.5c-4.2,0-6.8,0.1-7.8,0.2s-1.7,0.2-2.1,0.4
				c-0.4,0-0.7-0.2-1.1-0.5c-0.3-0.3-0.5-0.8-0.5-1.4c0-1.2,0.5-1.9,1.5-1.9h6.5V44.4c-2.3,0-3.8,0-4.5,0.1c-0.8,0.1-1.4,0.2-2,0.3
				c-0.4,0-0.7-0.2-1.1-0.5C63.2,44,63,43.5,63,42.9c0-1.2,0.5-1.9,1.5-1.9H67h4c3.6,0,6,0,7.4-0.1s2.5-0.2,3.4-0.3
				c0.4,0,0.7,0.2,1.1,0.5c0.3,0.3,0.5,0.8,0.5,1.4V48z"/>
			<path class="st0" d="M125.8,74.3V63.2c-7.2,0-10.7,3.3-10.7,9.8c0,1.6,0.4,2.9,1.2,3.8c0.8,0.9,1.7,1.4,2.7,1.4
				c0.8,0,1.8-0.3,3-0.9C123.1,76.7,124.4,75.7,125.8,74.3 M114.1,45c1.8,0.8,2.7,2.4,2.7,4.8c0,1.7-0.5,3-1.6,4.1
				c-1,1.1-2.4,1.6-3.9,1.6c-1.6,0-2.9-0.5-3.8-1.6c-1-1.1-1.5-2.5-1.5-4.1c0-3.1,1.5-5.6,4.5-7.5s6.2-2.9,9.5-2.9
				c6.4,0,11,1.6,13.8,4.8c2.8,3.2,4.2,8.4,4.2,15.5v17.4c0,1.8,0.4,2.8,1.1,2.8c0.6,0,1.2-0.3,1.7-1c1-1.2,1.5-1.9,1.6-2
				c0.5-0.4,0.9-0.6,1.3-0.6c0.6,0,1.1,0.3,1.7,0.9c0.3,0.4,0.4,0.8,0.4,1.2c0,1-0.4,1.8-1.1,2.4c-1.5,1.2-2.9,2.1-4.3,2.6
				c-1.4,0.5-3.1,0.8-5.1,0.8c-3.1,0-5.4-0.6-6.9-1.8c-1.1-0.9-2-2.4-2.7-4.5c-2.3,2.2-4.6,3.8-6.8,4.8c-2.2,1-4.3,1.5-6.4,1.5
				c-2.8,0-5.1-0.9-7-2.6s-2.8-4.1-2.8-7.2c0-4.7,2.4-8.3,7.1-10.9c4.2-2.2,9.5-3.4,15.9-3.4V49.7c0-2.6-0.4-4.4-1.3-5.5
				c-0.8-1.1-2.3-1.6-4.5-1.6C117,42.7,115,43.4,114.1,45"/>
			<path class="st0" d="M170.6,45.4c-0.6-0.7-1.6-1.3-3-1.8s-2.9-0.8-4.6-0.8c-5.2,0-7.9,2.1-7.9,6.2c0,2.8,2.5,4.9,7.6,6.4l5,1.4
				c8.1,2.2,12.2,6.9,12.2,13.9c0,4.1-1.6,7.5-4.9,10c-3.3,2.6-7.4,3.8-12.2,3.8s-8.8-1.2-12.2-3.6c-3.3-2.4-5-5.2-5-8.3
				c0-1.9,0.5-3.3,1.5-4.2c1-0.9,2.2-1.4,3.6-1.4c1.3,0,2.4,0.5,3.4,1.5s1.4,2.2,1.4,3.5c0,2.2-1,3.8-3.1,4.7
				c1.1,1.4,2.6,2.5,4.5,3.1c1.9,0.7,4,1,6.2,1c2.5,0,4.6-0.6,6.1-1.8c1.5-1.2,2.3-2.9,2.3-5.1c0-1.6-0.8-3-2.5-4.2
				c-1.7-1.1-4-2.1-6.9-3l-4.3-1.2C150.6,63.4,147,59,147,52.4c0-4.4,1.7-7.7,5.2-10.1c2.9-2,6.5-3,10.6-3c3.9,0,7.2,0.8,10,2.4
				c3.2,1.8,4.7,4.2,4.7,7.2c0,1.9-0.5,3.3-1.5,4.3s-2.2,1.5-3.5,1.5s-2.4-0.5-3.3-1.4c-0.9-0.9-1.3-2-1.3-3.4c0-1,0.2-1.9,0.7-2.6
				C169.1,46.5,169.7,45.9,170.6,45.4"/>
			<path class="st0" d="M204,23.8c0,2-0.7,3.7-2.1,5.2c-1.4,1.4-3,2.2-4.9,2.2s-3.5-0.7-4.9-2.2c-1.3-1.4-2-3.2-2-5.2s0.7-3.7,2-5.2
				c1.3-1.4,2.9-2.2,4.9-2.2c1.9,0,3.6,0.7,4.9,2.2C203.3,20.1,204,21.8,204,23.8 M203.1,79.3h6.5c0.4,0,0.7,0.2,1.1,0.5
				c0.3,0.3,0.5,0.8,0.5,1.4c0,1.2-0.5,1.9-1.5,1.9c-0.5,0-0.9,0-1.4-0.1c-2.3-0.3-5.2-0.4-8.5-0.4h-5.5c-4.2,0-6.8,0.1-7.8,0.2
				s-1.7,0.2-2.1,0.4c-0.4,0-0.7-0.2-1.1-0.5c-0.3-0.3-0.5-0.8-0.5-1.4c0-1.2,0.5-1.9,1.5-1.9h6.5v-35c-2.3,0-3.8,0-4.5,0.1
				c-0.8,0.1-1.4,0.2-2,0.3c-0.4,0-0.7-0.2-1.1-0.5c-0.3-0.3-0.5-0.8-0.5-1.4c0-1.2,0.5-1.9,1.5-1.9h2.5h4c3.7,0,6.2,0,7.5-0.1
				s2.4-0.2,3.2-0.3c0.4,0,0.7,0.2,1.1,0.5c0.3,0.3,0.5,0.8,0.5,1.4v36.8H203.1z"/>
			<path class="st0" d="M230.8,79.3h6.5c0.4,0,0.7,0.2,1.1,0.5c0.3,0.3,0.5,0.8,0.5,1.4c0,1.2-0.5,1.9-1.5,1.9c-0.5,0-0.9,0-1.4-0.1
				c-2.3-0.3-5.2-0.4-8.5-0.4H222c-4.2,0-6.8,0.1-7.8,0.2s-1.7,0.2-2.1,0.4c-0.4,0-0.7-0.2-1.1-0.5c-0.3-0.3-0.5-0.8-0.5-1.4
				c0-1.2,0.5-1.9,1.5-1.9h6.5V17.9c-2.3,0-3.8,0.1-4.5,0.1s-1.4,0.2-2,0.3c-0.4,0-0.7-0.2-1.1-0.5c-0.3-0.3-0.5-0.8-0.5-1.4
				c0-1.2,0.5-1.9,1.5-1.9h2.5h4c3.3,0,5.7,0,7.1-0.1c1.4-0.1,2.6-0.2,3.6-0.3c0.4,0,0.7,0.2,1.1,0.5c0.3,0.3,0.5,0.8,0.5,1.4
				L230.8,79.3L230.8,79.3z"/>
			<path class="st0" d="M278.4,65.1c0-4.9-1-9-3-12.1c-1.8-2.8-3.9-4.2-6.3-4.2c-1.9,0-3.1,1.1-3.6,3.4c-0.6,2.3-0.8,6.6-0.8,12.8
				c0,6.5,0.3,10.8,0.8,13s1.8,3.3,3.6,3.3c2.4,0,4.5-1.4,6.3-4.1C277.4,74.1,278.4,70.1,278.4,65.1 M278.4,27.1
				c-1.9,0-3.2,0-3.9,0.1c-0.7,0.1-1.2,0.2-1.7,0.3c-0.3,0-0.6-0.1-0.9-0.4s-0.4-0.7-0.4-1.2c0-1.1,0.4-1.6,1.3-1.6h2.2h3.5
				c3,0,5.1,0,6.3-0.1c1.2-0.1,2.2-0.2,3-0.3c0.3,0,0.6,0.1,0.9,0.4s0.4,0.7,0.4,1.2v54.6c1.9,0,3.2,0,3.9-0.1
				c0.6-0.1,1.2-0.2,1.8-0.3c0.3,0,0.6,0.1,0.9,0.4s0.4,0.7,0.4,1.2c0,1.1-0.4,1.6-1.3,1.6h-2.2h-3.5c-2.8,0-4.8,0-6.1,0.1
				c-1.3,0.1-2.3,0.2-3.2,0.3c-0.3,0-0.6-0.1-0.9-0.4s-0.4-0.7-0.4-1.2v-3.9c-2.5,4.4-5.9,6.6-10.4,6.6c-4.3,0-7.9-1.8-10.6-5.4
				c-2.8-3.6-4.1-8.3-4.1-14.1s1.4-10.5,4.1-14.1s6.3-5.4,10.7-5.4c2,0,4,0.6,5.8,1.8s3.4,2.8,4.5,4.9L278.4,27.1L278.4,27.1z"/>
			<path class="st0" d="M309.6,58.4h10.5c0.5-1.2,0.7-2.6,0.7-4.1c0-1.6-0.4-3-1.2-4c-0.8-1.1-1.9-1.6-3.5-1.6
				c-1.9,0-3.3,0.8-4.4,2.4C310.7,52.6,309.9,55,309.6,58.4 M309.3,61.6l-0.1,3.4c0,6,0.7,10.2,2.1,12.7s3.6,3.8,6.5,3.8
				c2.7,0,5.1-0.7,7-2c2-1.3,3.4-3.3,4.2-5.8c0.1-0.5,0.3-0.8,0.4-1c0.2-0.3,0.6-0.5,0.9-0.5c0.9,0,1.4,0.5,1.4,1.4
				c0,0.2,0,0.4-0.1,0.6c-0.1,0.4-0.2,0.8-0.3,1.1c-1.4,3.3-3.5,5.7-6.5,7.3c-2.4,1.3-5.2,1.9-8.2,1.9c-5.2,0-9.6-1.6-13.1-4.8
				c-3.9-3.6-5.8-8.4-5.8-14.7c0-6.2,1.9-11,5.8-14.6c3.5-3.3,7.7-4.9,12.6-4.9c4.6,0,8.3,1.4,11.1,4.1c2.8,2.7,4.2,6.1,4.2,10.3
				v1.6h-22.1V61.6z"/>
			<path class="st0" d="M362.6,53.7v27.5h6.3c0.4,0,0.7,0.1,1,0.4s0.4,0.7,0.4,1.2c0,1.1-0.5,1.7-1.4,1.7c-0.8-0.1-2.2-0.2-4.2-0.3
				c-2-0.1-3.8-0.2-5.2-0.2h-5.8c-3,0-5.2,0.1-6.4,0.2c-1.3,0.1-2.2,0.2-3,0.3c-0.4,0-0.7-0.1-1-0.4s-0.4-0.7-0.4-1.2
				c0-1.1,0.5-1.7,1.4-1.7h6.3V25.3h-6.3c-0.4,0-0.7-0.1-1-0.4s-0.4-0.7-0.4-1.2c0-1.1,0.5-1.7,1.4-1.7c0.8,0.1,2.2,0.2,4.2,0.4
				c2,0.1,3.8,0.2,5.2,0.2h7H382c0.8,0,1.5-0.1,2.3-0.2s1.7-0.2,2.8-0.4c0.4,0,0.7,0.1,1,0.4s0.4,0.7,0.4,1.2v3c0,2.2,0,4.2,0.1,5.9
				s0.2,3.6,0.3,5.8c0,1-0.5,1.4-1.5,1.4c-0.5,0-0.9-0.1-1.2-0.4c-0.3-0.3-0.4-0.6-0.4-1c0-4.1-0.7-7.1-2-9.1
				c-1.5-2.2-3.9-3.3-7.1-3.3h-14.3v24.3h7.5c4.8,0,7.2-2.5,7.2-7.4c0-1,0.4-1.4,1.2-1.4c0.8,0,1.2,0.5,1.2,1.4v3.7V52v5v4.1
				c0,1-0.4,1.4-1.2,1.4c-0.8,0-1.2-0.5-1.2-1.4c0-2.4-0.6-4.2-1.9-5.5s-3-1.9-5.3-1.9C369.9,53.7,362.6,53.7,362.6,53.7z"/>
			<path class="st0" d="M406.9,74.4V63.2c-7.2,0-10.7,3.3-10.7,9.8c0,1.6,0.4,2.9,1.2,3.8c0.8,0.9,1.7,1.4,2.7,1.4
				c0.8,0,1.8-0.3,3-0.9C404.3,76.8,405.5,75.8,406.9,74.4 M395.3,45c1.8,0.8,2.7,2.4,2.7,4.8c0,1.7-0.5,3-1.6,4.1
				c-1,1.1-2.4,1.6-3.9,1.6c-1.6,0-2.9-0.5-3.8-1.6c-1-1.1-1.5-2.5-1.5-4.1c0-3.1,1.5-5.6,4.5-7.5s6.2-2.9,9.5-2.9
				c6.4,0,11,1.6,13.8,4.8s4.2,8.4,4.2,15.5v17.4c0,1.8,0.4,2.8,1.1,2.8c0.6,0,1.2-0.3,1.7-1c1-1.2,1.5-1.9,1.6-2
				c0.5-0.4,0.9-0.6,1.3-0.6c0.6,0,1.1,0.3,1.7,0.9c0.3,0.4,0.4,0.8,0.4,1.2c0,1-0.4,1.8-1.1,2.4c-1.5,1.2-2.9,2.1-4.3,2.6
				s-3.1,0.8-5.1,0.8c-3.1,0-5.4-0.6-6.9-1.8c-1.1-0.9-2-2.4-2.7-4.5c-2.3,2.2-4.6,3.8-6.8,4.8c-2.2,1-4.3,1.5-6.4,1.5
				c-2.8,0-5.1-0.9-7-2.6s-2.8-4.1-2.8-7.2c0-4.7,2.4-8.3,7.1-10.9c4.2-2.2,9.5-3.4,15.9-3.4V49.8c0-2.6-0.4-4.4-1.3-5.5
				c-0.8-1.1-2.3-1.6-4.5-1.6C398.2,42.7,396.2,43.5,395.3,45"/>
			<path class="st0" d="M439.2,31c0.6-3.2,1-5.2,1.3-6c0.5-1.8,1.3-2.7,2.3-2.7c1.2,0,1.8,1.4,1.8,4.1v14.8l9.9-0.1
				c1,0,1.5,0.6,1.5,1.7c0,0.6-0.1,1-0.4,1.3s-0.6,0.4-1.1,0.4h-9.9v31.8c0,2.9,0.8,4.3,2.5,4.3c1.1,0,2-0.7,2.8-2
				c0.6-1.1,1-2.5,1.3-4.2c0.2-1.7,1-2.5,2.2-2.5s1.9,0.7,1.9,2.2c0,2.5-1,4.7-2.9,6.8c-2.3,2.4-5.3,3.6-9,3.6
				c-3.2,0-5.8-0.9-7.7-2.8c-2.1-2.1-3.2-5.1-3.2-8.9V44.3h-4.6h-2.7c-1,0-1.5-0.6-1.5-1.7c0-0.6,0.1-1,0.4-1.3s0.6-0.4,1.1-0.4
				c5.2,0,8.6-0.5,10.1-1.5C437,38.2,438.4,35.4,439.2,31"/>
			<path class="st0" d="M487.7,62c0-7.8-0.6-13-1.7-15.4s-3.4-3.7-6.8-3.7s-5.7,1.2-6.8,3.7c-1.1,2.4-1.7,7.6-1.7,15.4
				s0.6,13,1.7,15.4s3.4,3.7,6.8,3.7s5.7-1.2,6.8-3.7C487.1,75,487.7,69.8,487.7,62 M500.8,62c0,6.6-2.1,12-6.2,16.2
				s-9.3,6.3-15.5,6.3c-6.1,0-11.3-2.1-15.5-6.3c-4.2-4.2-6.3-9.6-6.3-16.3c0-6.6,2.1-12,6.2-16.2s9.3-6.3,15.5-6.3
				c6.1,0,11.3,2.1,15.5,6.3C498.8,49.9,500.8,55.3,500.8,62"/>
		</g>
	</g>
</g>
</svg>
