<?xml version="1.0" encoding="utf-8"?>
<!-- Generator: Adobe Illustrator 19.2.0, SVG Export Plug-In . SVG Version: 6.00 Build 0)  -->
<svg version="1.1" id="Layer_1" xmlns="http://www.w3.org/2000/svg" xmlns:xlink="http://www.w3.org/1999/xlink" x="0px" y="0px"
	 viewBox="71 141 32 32" style="enable-background:new 71 141 32 32;" xml:space="preserve">
<style type="text/css">
	.st0{fill:#FFFFFF;}
</style>
<g id="magnifier-4-icon">
	<path class="st0" d="M100.8,167.3l-6.2-6.2c1.2-1.9,1.9-4.1,1.9-6.5c0-6.7-5.5-12.2-12.2-12.2c-6.7,0-12.2,5.5-12.2,12.2
		s5.5,12.2,12.2,12.2c2.3,0,4.8-1,6.6-2.1l6.2,6.2C99.9,173.6,103.5,170,100.8,167.3z M76.5,154.7c0-4.4,3.5-7.9,7.9-7.9
		c4.4,0,7.9,3.5,7.9,7.9s-3.5,7.9-7.9,7.9C80,162.6,76.5,159.1,76.5,154.7z"/>
</g>
</svg>
